<svg width="16" height="16" viewBox="0 0 16 16" fill="none" xmlns="http://www.w3.org/2000/svg">
<g id="bolt">
<mask id="mask0_4738_86690" style="mask-type:alpha" maskUnits="userSpaceOnUse" x="0" y="0" width="16" height="16">
<rect id="Bounding box" width="16" height="16" fill="#D9D9D9"/>
</mask>
<g mask="url(#mask0_4738_86690)">
<path id="bolt_2" d="M7.03328 12.1336L10.4833 8.00029H7.81661L8.29995 4.21696L5.21661 8.66696H7.53328L7.03328 12.1336ZM6.38461 9.66696H4.35645C4.13245 9.66696 3.96834 9.56779 3.86411 9.36946C3.75978 9.17124 3.77261 8.98024 3.90261 8.79646L8.27045 2.49529C8.36022 2.36963 8.47478 2.28368 8.61411 2.23746C8.75333 2.19135 8.89817 2.19524 9.04861 2.24913C9.19906 2.3029 9.30911 2.39496 9.37878 2.52529C9.44845 2.65563 9.47428 2.79602 9.45628 2.94646L8.95511 7.00029H11.4423C11.6798 7.00029 11.8473 7.10674 11.9448 7.31963C12.0422 7.5324 12.0136 7.73068 11.8589 7.91446L7.02945 13.699C6.93289 13.8135 6.81495 13.8877 6.67561 13.9215C6.53628 13.9551 6.40039 13.9416 6.26795 13.881C6.1355 13.8203 6.03272 13.7276 5.95961 13.6028C5.8865 13.478 5.85895 13.3404 5.87695 13.19L6.38461 9.66696Z" fill="url(#paint0_linear_4738_86690)"/>
</g>
</g>
<defs>
<linearGradient id="paint0_linear_4738_86690" x1="13.1729" y1="14.1347" x2="8.1612" y2="3.51783" gradientUnits="userSpaceOnUse">
<stop stop-color="#B343CB"/>
<stop offset="1" stop-color="#7095EB"/>
</linearGradient>
</defs>
</svg>
