<svg width="12" height="12" viewBox="0 0 12 12" fill="none" xmlns="http://www.w3.org/2000/svg">
<g id="devicon:slack" clip-path="url(#clip0_4738_86788)">
<path id="Vector" d="M2.55518 7.56732C2.55518 8.2545 1.99474 8.81579 1.30746 8.81579C0.620176 8.81579 0.059082 8.2545 0.059082 7.56732C0.059082 6.88013 0.620363 6.31885 1.30755 6.31885H2.55527L2.55518 7.56732ZM3.18414 7.56732C3.18414 6.88013 3.74543 6.31885 4.43261 6.31885C5.1198 6.31885 5.68108 6.88004 5.68108 7.56732V10.6925C5.68108 11.3797 5.11989 11.9409 4.43261 11.9409C3.74543 11.9409 3.18414 11.3797 3.18414 10.6925V7.56732Z" fill="#DE1C59"/>
<path id="Vector_2" d="M4.43261 2.55518C3.74543 2.55518 3.18414 1.99474 3.18414 1.30746C3.18414 0.620176 3.74543 0.059082 4.43261 0.059082C5.1198 0.059082 5.68108 0.620363 5.68108 1.30755V2.55527L4.43261 2.55518ZM4.43261 3.18414C5.1198 3.18414 5.68108 3.74543 5.68108 4.43261C5.68108 5.1198 5.11989 5.68108 4.43261 5.68108H1.30746C0.62027 5.68108 0.059082 5.11989 0.059082 4.43261C0.059082 3.74543 0.620363 3.18414 1.30755 3.18414H4.43261Z" fill="#35C5F0"/>
<path id="Vector_3" d="M9.44475 4.43261C9.44475 3.74543 10.0052 3.18414 10.6925 3.18414C11.3798 3.18414 11.9409 3.74543 11.9409 4.43261C11.9409 5.1198 11.3797 5.68108 10.6925 5.68108H9.44475V4.43261ZM8.81579 4.43261C8.81579 5.1198 8.2545 5.68108 7.56732 5.68108C6.88013 5.68108 6.31885 5.11989 6.31885 4.43261V1.30746C6.31885 0.62027 6.88004 0.059082 7.56732 0.059082C8.2545 0.059082 8.81579 0.620363 8.81579 1.30755V4.43261Z" fill="#2EB57D"/>
<path id="Vector_4" d="M7.56732 9.44475C8.2545 9.44475 8.81579 10.0052 8.81579 10.6925C8.81579 11.3798 8.2545 11.9409 7.56732 11.9409C6.88013 11.9409 6.31885 11.3797 6.31885 10.6925V9.44475H7.56732ZM7.56732 8.81579C6.88013 8.81579 6.31885 8.2545 6.31885 7.56732C6.31885 6.88013 6.88004 6.31885 7.56732 6.31885H10.6925C11.3797 6.31885 11.9409 6.88004 11.9409 7.56732C11.9409 8.2545 11.3797 8.81579 10.6925 8.81579H7.56732Z" fill="#EBB02E"/>
</g>
<defs>
<clipPath id="clip0_4738_86788">
<rect width="12" height="12" fill="white"/>
</clipPath>
</defs>
</svg>
