<svg width="16" height="16" viewBox="0 0 16 16" fill="none" xmlns="http://www.w3.org/2000/svg">
<g id="205_group">
<mask id="mask0_4732_58736" style="mask-type:alpha" maskUnits="userSpaceOnUse" x="0" y="0" width="16" height="16">
<rect id="Bounding box" width="16" height="16" fill="#D9D9D9"/>
</mask>
<g mask="url(#mask0_4732_58736)">
<path id="error" d="M7.99984 11.1532C8.15239 11.1532 8.28028 11.1016 8.3835 10.9983C8.48673 10.8951 8.53834 10.7672 8.53834 10.6147C8.53834 10.4621 8.48673 10.3342 8.3835 10.231C8.28028 10.1279 8.15239 10.0763 7.99984 10.0763C7.84728 10.0763 7.71939 10.1279 7.61617 10.231C7.51295 10.3342 7.46134 10.4621 7.46134 10.6147C7.46134 10.7672 7.51295 10.8951 7.61617 10.9983C7.71939 11.1016 7.84728 11.1532 7.99984 11.1532ZM8 8.71735C8.14178 8.71735 8.2605 8.66941 8.35617 8.57352C8.45195 8.47774 8.49984 8.35902 8.49984 8.21735V5.21735C8.49984 5.07568 8.45189 4.9569 8.356 4.86102C8.26012 4.76524 8.14134 4.71735 7.99967 4.71735C7.85789 4.71735 7.73917 4.76524 7.6435 4.86102C7.54773 4.9569 7.49984 5.07568 7.49984 5.21735V8.21735C7.49984 8.35902 7.54778 8.47774 7.64367 8.57352C7.73956 8.66941 7.85834 8.71735 8 8.71735ZM8.001 14.3327C7.125 14.3327 6.30161 14.1665 5.53084 13.834C4.76006 13.5016 4.08961 13.0504 3.5195 12.4805C2.94939 11.9106 2.498 11.2405 2.16534 10.47C1.83278 9.69957 1.6665 8.8764 1.6665 8.00052C1.6665 7.12452 1.83273 6.30113 2.16517 5.53035C2.49762 4.75957 2.94878 4.08913 3.51867 3.51902C4.08856 2.9489 4.75873 2.49752 5.52917 2.16485C6.29962 1.83229 7.12278 1.66602 7.99867 1.66602C8.87467 1.66602 9.69806 1.83224 10.4688 2.16468C11.2396 2.49713 11.9101 2.94829 12.4802 3.51818C13.0503 4.08807 13.5017 4.75824 13.8343 5.52868C14.1669 6.29913 14.3332 7.12229 14.3332 7.99818C14.3332 8.87418 14.1669 9.69757 13.8345 10.4683C13.5021 11.2391 13.0509 11.9096 12.481 12.4797C11.9111 13.0498 11.2409 13.5012 10.4705 13.8338C9.70006 14.1664 8.87689 14.3327 8.001 14.3327ZM7.99984 13.3327C9.48873 13.3327 10.7498 12.816 11.7832 11.7827C12.8165 10.7493 13.3332 9.48824 13.3332 7.99935C13.3332 6.51046 12.8165 5.24935 11.7832 4.21602C10.7498 3.18268 9.48873 2.66602 7.99984 2.66602C6.51095 2.66602 5.24984 3.18268 4.2165 4.21602C3.18317 5.24935 2.6665 6.51046 2.6665 7.99935C2.6665 9.48824 3.18317 10.7493 4.2165 11.7827C5.24984 12.816 6.51095 13.3327 7.99984 13.3327Z" fill="#FBBC04"/>
</g>
</g>
</svg>
