<svg width="16" height="16" viewBox="0 0 16 16" fill="none" xmlns="http://www.w3.org/2000/svg">
<g id="205_group">
<mask id="mask0_4738_86712" style="mask-type:alpha" maskUnits="userSpaceOnUse" x="0" y="0" width="16" height="16">
<rect id="Bounding box" width="16" height="16" fill="#D9D9D9"/>
</mask>
<g mask="url(#mask0_4738_86712)">
<path id="all_match" d="M2.40891 3.96415C2.25502 3.76326 2.23319 3.55126 2.34341 3.32815C2.45364 3.10515 2.63402 2.99365 2.88458 2.99365H9.89091C10.0806 2.99365 10.2602 3.03443 10.4299 3.11599C10.5997 3.19765 10.7392 3.31326 10.8486 3.46282L13.7256 7.18849C13.8495 7.35515 13.866 7.52971 13.7751 7.71215C13.6842 7.8946 13.5355 7.98582 13.3289 7.98582C13.2464 7.98582 13.1713 7.96899 13.1037 7.93532C13.0362 7.90154 12.9776 7.85304 12.9281 7.78982L10.0641 4.07049C10.0426 4.04482 10.0191 4.0256 9.99358 4.01282C9.96791 4.00004 9.93797 3.99365 9.90375 3.99365H3.66658L6.18841 7.26415C6.35764 7.47826 6.44225 7.72304 6.44225 7.99849C6.44225 8.27382 6.35764 8.5196 6.18841 8.73582L3.66658 12H7.21525C7.34213 12 7.45208 12.041 7.54508 12.123C7.63808 12.2051 7.69141 12.3103 7.70508 12.4385C7.72552 12.5872 7.68436 12.7179 7.58158 12.8307C7.47869 12.9435 7.35319 13 7.20508 13H2.88458C2.63402 13 2.45364 12.8884 2.34341 12.6653C2.23319 12.4422 2.25502 12.2303 2.40891 12.0295L5.39741 8.12815C5.4273 8.08971 5.44225 8.04699 5.44225 7.99999C5.44225 7.95299 5.4273 7.91026 5.39741 7.87182L2.40891 3.96415ZM11.5486 12.2372L11.1846 11.8667C11.1059 11.7838 11.0138 11.744 10.9082 11.7475C10.8027 11.7508 10.7085 11.794 10.6256 11.877C10.5427 11.9599 10.5012 12.053 10.5012 12.1563C10.5012 12.2598 10.5427 12.3529 10.6256 12.4358L11.1269 12.9372C11.2474 13.0577 11.3879 13.118 11.5486 13.118C11.7092 13.118 11.8499 13.0577 11.9704 12.9372L13.3742 11.5563C13.4571 11.4773 13.4986 11.3852 13.4986 11.2798C13.4986 11.1745 13.4571 11.0804 13.3742 10.9975C13.2956 10.9188 13.2035 10.8812 13.0979 10.8847C12.9924 10.8881 12.8981 10.9257 12.8152 10.9975L11.5486 12.2372ZM11.9999 15.0962C11.1504 15.0962 10.4284 14.7989 9.83391 14.2045C9.23947 13.61 8.94225 12.888 8.94225 12.0385C8.94225 11.1889 9.23947 10.4669 9.83391 9.87249C10.4284 9.27804 11.1504 8.98082 11.9999 8.98082C12.8495 8.98082 13.5715 9.27804 14.1659 9.87249C14.7604 10.4669 15.0576 11.1889 15.0576 12.0385C15.0576 12.888 14.7604 13.61 14.1659 14.2045C13.5715 14.7989 12.8495 15.0962 11.9999 15.0962Z" fill="#888888"/>
</g>
</g>
</svg>
