<svg width="16" height="16" viewBox="0 0 16 16" fill="none" xmlns="http://www.w3.org/2000/svg">
<g id="205_group">
<mask id="mask0_4738_86775" style="mask-type:alpha" maskUnits="userSpaceOnUse" x="0" y="0" width="16" height="16">
<rect id="Bounding box" width="16" height="16" fill="#D9D9D9"/>
</mask>
<g mask="url(#mask0_4738_86775)">
<path id="mark_email_unread" d="M2.87167 12.9998C2.53489 12.9998 2.24984 12.8832 2.0165 12.6498C1.78317 12.4165 1.6665 12.1315 1.6665 11.7947V4.20501C1.6665 3.86824 1.78317 3.58318 2.0165 3.34985C2.24984 3.11651 2.53489 2.99985 2.87167 2.99985H8.98067C9.12256 2.99985 9.24239 3.04879 9.34017 3.14668C9.43806 3.24457 9.48489 3.36446 9.48067 3.50635C9.47634 3.6439 9.42634 3.76051 9.33067 3.85618C9.23489 3.95196 9.11823 3.99985 8.98067 3.99985H2.6665V11.7947C2.6665 11.8546 2.68573 11.9037 2.72417 11.9422C2.76262 11.9806 2.81178 11.9998 2.87167 11.9998H13.128C13.1879 11.9998 13.2371 11.9806 13.2755 11.9422C13.3139 11.9037 13.3332 11.8546 13.3332 11.7947V7.33318C13.3332 7.19129 13.3811 7.07251 13.4768 6.97685C13.5725 6.88107 13.6913 6.83318 13.8332 6.83318C13.9751 6.83318 14.0938 6.88107 14.1895 6.97685C14.2853 7.07251 14.3332 7.19129 14.3332 7.33318V11.7947C14.3332 12.1315 14.2165 12.4165 13.9832 12.6498C13.7498 12.8832 13.4648 12.9998 13.128 12.9998H2.87167ZM7.99984 7.33318L10.169 5.95501C10.2904 5.87635 10.4046 5.85563 10.5113 5.89285C10.6182 5.92996 10.702 5.99679 10.7627 6.09335C10.8233 6.19001 10.8458 6.29346 10.83 6.40368C10.8141 6.5139 10.7455 6.60835 10.6242 6.68701L8.31784 8.16785C8.21528 8.23018 8.10928 8.2624 7.99984 8.26451C7.89039 8.26674 7.78439 8.23663 7.68184 8.17418L2.6665 5.03185V3.99985L7.99984 7.33318ZM12.6665 5.42301C12.1579 5.42301 11.7253 5.24457 11.3685 4.88768C11.0116 4.53079 10.8332 4.09813 10.8332 3.58968C10.8332 3.08113 11.0116 2.6484 11.3685 2.29151C11.7253 1.93474 12.1579 1.75635 12.6665 1.75635C13.1751 1.75635 13.6077 1.93474 13.9645 2.29151C14.3214 2.6484 14.4998 3.08113 14.4998 3.58968C14.4998 4.09813 14.3214 4.53079 13.9645 4.88768C13.6077 5.24457 13.1751 5.42301 12.6665 5.42301Z" fill="#888888"/>
</g>
</g>
</svg>
