<svg width="16" height="16" viewBox="0 0 16 16" fill="none" xmlns="http://www.w3.org/2000/svg">
<g id="205_group">
<mask id="mask0_4738_86760" style="mask-type:alpha" maskUnits="userSpaceOnUse" x="0" y="0" width="16" height="16">
<rect id="Bounding box" width="16" height="16" fill="#D9D9D9"/>
</mask>
<g mask="url(#mask0_4738_86760)">
<path id="alt_route" d="M7.49985 13.8333V11.4295C7.49985 10.8158 7.40968 10.3461 7.22934 10.0205C7.04901 9.6948 6.79473 9.38541 6.46651 9.0923L7.17935 8.37947C7.32123 8.51025 7.4629 8.66219 7.60434 8.8353C7.74579 9.0083 7.87762 9.19186 7.99985 9.38597C8.14262 9.14486 8.30734 8.92241 8.49401 8.71864C8.68079 8.51475 8.87462 8.32219 9.07551 8.14097C9.56607 7.70086 9.97929 7.1718 10.3152 6.5538C10.6511 5.9358 10.8216 4.94736 10.8268 3.58847L9.96135 4.4538C9.86901 4.54613 9.75473 4.59336 9.61851 4.59547C9.48218 4.59758 9.36229 4.55036 9.25885 4.4538C9.1554 4.35036 9.10368 4.23158 9.10368 4.09747C9.10368 3.96325 9.1554 3.84441 9.25885 3.74097L10.9113 2.08847C10.9738 2.02602 11.0396 1.98202 11.1088 1.95647C11.1781 1.9308 11.2528 1.91797 11.3332 1.91797C11.4135 1.91797 11.4883 1.9308 11.5575 1.95647C11.6267 1.98202 11.6926 2.02602 11.755 2.08847L13.4178 3.7513C13.5101 3.84364 13.559 3.95791 13.5645 4.09414C13.5701 4.23047 13.5212 4.35036 13.4178 4.4538C13.3212 4.55036 13.2041 4.59864 13.0665 4.59864C12.929 4.59864 12.8118 4.55036 12.7152 4.4538L11.8267 3.57563C11.8216 5.11752 11.6124 6.26302 11.1992 7.01214C10.786 7.76125 10.3054 8.38541 9.75751 8.88464C9.38918 9.21964 9.08746 9.54952 8.85235 9.8743C8.61735 10.1991 8.49985 10.7175 8.49985 11.4295V13.8333C8.49985 13.9752 8.45196 14.094 8.35618 14.1896C8.26051 14.2854 8.14173 14.3333 7.99985 14.3333C7.85796 14.3333 7.73918 14.2854 7.64351 14.1896C7.54773 14.094 7.49985 13.9752 7.49985 13.8333ZM4.31901 5.4308C4.27035 5.20425 4.23557 4.92347 4.21468 4.58847C4.19368 4.25336 4.17979 3.91575 4.17301 3.57563L3.28451 4.46413C3.19218 4.55636 3.07785 4.60358 2.94151 4.6058C2.80518 4.60791 2.68529 4.55725 2.58185 4.4538C2.48529 4.35725 2.43701 4.24014 2.43701 4.10247C2.43701 3.96491 2.48529 3.84786 2.58185 3.7513L4.24468 2.08847C4.30712 2.02602 4.37296 1.98202 4.44218 1.95647C4.5114 1.9308 4.58618 1.91797 4.66651 1.91797C4.74685 1.91797 4.82162 1.9308 4.89085 1.95647C4.96007 1.98202 5.0259 2.02602 5.08835 2.08847L6.75118 3.7513C6.85029 3.85041 6.89918 3.96641 6.89785 4.0993C6.89662 4.23219 6.84429 4.35036 6.74084 4.4538C6.6374 4.55036 6.52029 4.59864 6.38951 4.59864C6.25885 4.59864 6.14179 4.55036 6.03835 4.4538L5.17285 3.59863C5.16862 3.90041 5.17868 4.19147 5.20301 4.4718C5.22735 4.75214 5.25707 4.99402 5.29218 5.19747L4.31901 5.4308ZM5.65635 8.3063C5.45546 8.08152 5.26079 7.81897 5.07235 7.51864C4.8839 7.21819 4.72685 6.88502 4.60118 6.51914L5.56401 6.27947C5.65801 6.53669 5.77401 6.77625 5.91201 6.99814C6.05001 7.21991 6.20235 7.41841 6.36901 7.59364L5.65635 8.3063Z" fill="#888888"/>
</g>
</g>
</svg>
