<svg width="6" height="4" viewBox="0 0 6 4" fill="none" xmlns="http://www.w3.org/2000/svg">
<path id="arrow_drop_up" d="M0.510566 3.49995C0.408941 3.49995 0.327065 3.4657 0.26494 3.3972C0.202815 3.32883 0.171753 3.24902 0.171753 3.15777C0.171753 3.13489 0.206815 3.0557 0.27694 2.9202L2.64019 0.556953C2.69444 0.502578 2.75057 0.462891 2.80857 0.437891C2.86657 0.412891 2.93038 0.400391 3 0.400391C3.06963 0.400391 3.13344 0.412891 3.19144 0.437891C3.24944 0.462891 3.30557 0.502578 3.35982 0.556953L5.72325 2.9202C5.75575 2.95283 5.78138 2.98927 5.80013 3.02952C5.81888 3.06964 5.82825 3.1127 5.82825 3.1587C5.82825 3.25058 5.79719 3.33045 5.73506 3.39833C5.67294 3.46608 5.59107 3.49995 5.48944 3.49995H0.510566Z" fill="white" fill-opacity="0.2"/>
</svg>
