<svg width="16" height="16" viewBox="0 0 16 16" fill="none" xmlns="http://www.w3.org/2000/svg">
<g id="205_group">
<mask id="mask0_4738_86749" style="mask-type:alpha" maskUnits="userSpaceOnUse" x="0" y="0" width="16" height="16">
<rect id="Bounding box" width="16" height="16" fill="#D9D9D9"/>
</mask>
<g mask="url(#mask0_4738_86749)">
<path id="timer" d="M6.62833 1.8335C6.48666 1.8335 6.36794 1.78555 6.27216 1.68966C6.17627 1.59377 6.12833 1.475 6.12833 1.33333C6.12833 1.19155 6.17627 1.07283 6.27216 0.977163C6.36794 0.881385 6.48666 0.833496 6.62833 0.833496H9.372C9.51366 0.833496 9.63238 0.881441 9.72816 0.97733C9.82405 1.07322 9.872 1.192 9.872 1.33366C9.872 1.47544 9.82405 1.59416 9.72816 1.68983C9.63238 1.78561 9.51366 1.8335 9.372 1.8335H6.62833ZM8.00033 9.20533C8.14211 9.20533 8.26083 9.15738 8.3565 9.0615C8.45227 8.96572 8.50016 8.847 8.50016 8.70533V5.96166C8.50016 5.82 8.45222 5.70127 8.35633 5.6055C8.26044 5.50961 8.14166 5.46166 8 5.46166C7.85822 5.46166 7.7395 5.50961 7.64383 5.6055C7.54805 5.70127 7.50016 5.82 7.50016 5.96166V8.70533C7.50016 8.847 7.54811 8.96572 7.644 9.0615C7.73988 9.15738 7.85866 9.20533 8.00033 9.20533ZM8.00016 14.3335C7.22272 14.3335 6.48988 14.1848 5.80166 13.8873C5.11344 13.5899 4.51211 13.1839 3.99766 12.6693C3.48311 12.1549 3.07711 11.5536 2.77966 10.8653C2.48222 10.1771 2.3335 9.44427 2.3335 8.66683C2.3335 7.88939 2.48222 7.15655 2.77966 6.46833C3.07711 5.78011 3.48311 5.17877 3.99766 4.66433C4.51211 4.14977 5.11344 3.74377 5.80166 3.44633C6.48988 3.14889 7.22272 3.00016 8.00016 3.00016C8.66772 3.00016 9.31066 3.11344 9.929 3.34C10.5473 3.56644 11.1215 3.89077 11.6515 4.313L12.131 3.8335C12.2232 3.74116 12.3392 3.69394 12.479 3.69183C12.6188 3.68972 12.7369 3.73694 12.8335 3.8335C12.9301 3.93005 12.9783 4.04716 12.9783 4.18483C12.9783 4.32239 12.9301 4.43944 12.8335 4.536L12.354 5.0155C12.7762 5.5455 13.1006 6.11966 13.327 6.738C13.5536 7.35633 13.6668 7.99927 13.6668 8.66683C13.6668 9.44427 13.5181 10.1771 13.2207 10.8653C12.9232 11.5536 12.5172 12.1549 12.0027 12.6693C11.4882 13.1839 10.8869 13.5899 10.1987 13.8873C9.51044 14.1848 8.77761 14.3335 8.00016 14.3335ZM8.00016 13.3335C9.28905 13.3335 10.3891 12.8779 11.3002 11.9668C12.2113 11.0557 12.6668 9.95572 12.6668 8.66683C12.6668 7.37794 12.2113 6.27794 11.3002 5.36683C10.3891 4.45572 9.28905 4.00016 8.00016 4.00016C6.71127 4.00016 5.61127 4.45572 4.70016 5.36683C3.78905 6.27794 3.3335 7.37794 3.3335 8.66683C3.3335 9.95572 3.78905 11.0557 4.70016 11.9668C5.61127 12.8779 6.71127 13.3335 8.00016 13.3335Z" fill="#888888"/>
</g>
</g>
</svg>
