<svg width="16" height="16" viewBox="0 0 16 16" fill="none" xmlns="http://www.w3.org/2000/svg">
<g id="205_group">
<mask id="mask0_4738_86738" style="mask-type:alpha" maskUnits="userSpaceOnUse" x="0" y="0" width="16" height="16">
<rect id="Bounding box" width="16" height="16" fill="#D9D9D9"/>
</mask>
<g mask="url(#mask0_4738_86738)">
<path id="checklist" d="M3.7797 10.8924L6.2617 8.41038C6.36092 8.31116 6.47804 8.26221 6.61304 8.26355C6.74804 8.26477 6.86515 8.3171 6.96437 8.42055C7.05659 8.52121 7.1027 8.63871 7.1027 8.77305C7.1027 8.90727 7.05659 9.02393 6.96437 9.12305L4.2182 11.8795C4.09765 12 3.95704 12.0602 3.79637 12.0602C3.6357 12.0602 3.49509 12 3.37454 11.8795L2.0117 10.5167C1.91948 10.4244 1.87442 10.3083 1.87654 10.1685C1.87865 10.0289 1.92587 9.91288 2.0182 9.82055C2.11054 9.72821 2.22692 9.68205 2.36737 9.68205C2.50781 9.68205 2.62348 9.72821 2.71437 9.82055L3.7797 10.8924ZM3.7797 5.81538L6.2617 3.33338C6.36092 3.23427 6.47804 3.18532 6.61304 3.18655C6.74804 3.18788 6.86515 3.24027 6.96437 3.34371C7.05659 3.44438 7.1027 3.56182 7.1027 3.69605C7.1027 3.83038 7.05659 3.9471 6.96437 4.04621L4.2182 6.80255C4.09765 6.9231 3.95704 6.98338 3.79637 6.98338C3.6357 6.98338 3.49509 6.9231 3.37454 6.80255L2.0117 5.43971C1.91948 5.34749 1.87442 5.23149 1.87654 5.09171C1.87865 4.95193 1.92587 4.83593 2.0182 4.74371C2.11054 4.65138 2.22692 4.60521 2.36737 4.60521C2.50781 4.60521 2.62348 4.65138 2.71437 4.74371L3.7797 5.81538ZM9.1732 11.0385C9.03154 11.0385 8.91281 10.9906 8.81704 10.8947C8.72115 10.7988 8.6732 10.68 8.6732 10.5382C8.6732 10.3965 8.72115 10.2778 8.81704 10.182C8.91281 10.0864 9.03154 10.0385 9.1732 10.0385H13.8399C13.9815 10.0385 14.1003 10.0865 14.1962 10.1824C14.292 10.2783 14.3399 10.397 14.3399 10.5387C14.3399 10.6805 14.292 10.7992 14.1962 10.8949C14.1003 10.9907 13.9815 11.0385 13.8399 11.0385H9.1732ZM9.1732 5.96155C9.03154 5.96155 8.91281 5.9136 8.81704 5.81771C8.72115 5.72182 8.6732 5.60305 8.6732 5.46138C8.6732 5.3196 8.72115 5.20088 8.81704 5.10521C8.91281 5.00943 9.03154 4.96155 9.1732 4.96155H13.8399C13.9815 4.96155 14.1003 5.00949 14.1962 5.10538C14.292 5.20127 14.3399 5.3201 14.3399 5.46188C14.3399 5.60355 14.292 5.72227 14.1962 5.81805C14.1003 5.91371 13.9815 5.96155 13.8399 5.96155H9.1732Z" fill="white"/>
</g>
</g>
</svg>
