<svg width="16" height="16" viewBox="0 0 16 16" fill="none" xmlns="http://www.w3.org/2000/svg">
<g id="205_group">
<mask id="mask0_4738_86727" style="mask-type:alpha" maskUnits="userSpaceOnUse" x="0" y="0" width="16" height="16">
<rect id="Bounding box" width="16" height="16" fill="#D9D9D9"/>
</mask>
<g mask="url(#mask0_4738_86727)">
<path id="news" d="M3.53866 13.6668C3.20188 13.6668 2.91683 13.5502 2.6835 13.3168C2.45016 13.0835 2.3335 12.7984 2.3335 12.4617L2.3335 3.53866C2.3335 3.20188 2.45016 2.91683 2.6835 2.6835C2.91683 2.45016 3.20188 2.3335 3.53866 2.3335L10.027 2.3335C10.1878 2.3335 10.3423 2.36472 10.4905 2.42716C10.6388 2.4895 10.7677 2.57539 10.877 2.68483L13.3155 5.12333C13.4249 5.23266 13.5108 5.3615 13.5732 5.50983C13.6356 5.65805 13.6668 5.81255 13.6668 5.97333V12.4617C13.6668 12.7984 13.5502 13.0835 13.3168 13.3168C13.0835 13.5502 12.7984 13.6668 12.4617 13.6668H3.53866ZM3.53866 12.6668H12.4617C12.5216 12.6668 12.5707 12.6476 12.6092 12.6092C12.6476 12.5707 12.6668 12.5216 12.6668 12.4617V6.00016H10.6027C10.4309 6.00016 10.2876 5.94266 10.1727 5.82766C10.0577 5.71277 10.0002 5.56944 10.0002 5.39766V3.3335L3.53866 3.3335C3.47877 3.3335 3.42961 3.35272 3.39116 3.39116C3.35272 3.42961 3.3335 3.47877 3.3335 3.53866L3.3335 12.4617C3.3335 12.5216 3.35272 12.5707 3.39116 12.6092C3.42961 12.6476 3.47877 12.6668 3.53866 12.6668ZM10.6668 11.0002C10.8087 11.0002 10.9275 10.9523 11.0232 10.8565C11.1189 10.7608 11.1668 10.6421 11.1668 10.5002C11.1668 10.3583 11.1189 10.2395 11.0232 10.1438C10.9275 10.0481 10.8087 10.0002 10.6668 10.0002H5.3335C5.19161 10.0002 5.07283 10.0481 4.97716 10.1438C4.88138 10.2395 4.8335 10.3583 4.8335 10.5002C4.8335 10.6421 4.88138 10.7608 4.97716 10.8565C5.07283 10.9523 5.19161 11.0002 5.3335 11.0002H10.6668ZM7.50016 6.00016C7.64205 6.00016 7.76083 5.95227 7.8565 5.8565C7.95227 5.76083 8.00016 5.64205 8.00016 5.50016C8.00016 5.35827 7.95227 5.2395 7.8565 5.14383C7.76083 5.04805 7.64205 5.00016 7.50016 5.00016H5.3335C5.19161 5.00016 5.07283 5.04805 4.97716 5.14383C4.88138 5.2395 4.8335 5.35827 4.8335 5.50016C4.8335 5.64205 4.88138 5.76083 4.97716 5.8565C5.07283 5.95227 5.19161 6.00016 5.3335 6.00016H7.50016ZM10.6668 8.50016C10.8087 8.50016 10.9275 8.45227 11.0232 8.3565C11.1189 8.26083 11.1668 8.14205 11.1668 8.00016C11.1668 7.85827 11.1189 7.7395 11.0232 7.64383C10.9275 7.54805 10.8087 7.50016 10.6668 7.50016L5.3335 7.50016C5.19161 7.50016 5.07283 7.54805 4.97716 7.64383C4.88138 7.7395 4.8335 7.85827 4.8335 8.00016C4.8335 8.14205 4.88138 8.26083 4.97716 8.3565C5.07283 8.45227 5.19161 8.50016 5.3335 8.50016H10.6668Z" fill="white"/>
</g>
</g>
</svg>
