<svg width="16" height="16" viewBox="0 0 16 16" fill="none" xmlns="http://www.w3.org/2000/svg">
<g id="205_group">
<mask id="mask0_4738_86825" style="mask-type:alpha" maskUnits="userSpaceOnUse" x="0" y="0" width="16" height="16">
<rect id="Bounding box" width="16" height="16" fill="#D9D9D9"/>
</mask>
<g mask="url(#mask0_4738_86825)">
<path id="mitre" d="M8.92317 8.69226V7.30759C8.92317 7.02637 9.02167 6.78726 9.21867 6.59026C9.41567 6.39326 9.65472 6.29476 9.93583 6.29476H10.4615V4.37176H9.93583C9.65472 4.37176 9.41567 4.27326 9.21867 4.07626C9.02167 3.87926 8.92317 3.64015 8.92317 3.35893V1.97426C8.92317 1.69304 9.02167 1.45393 9.21867 1.25693C9.41567 1.05993 9.65472 0.961426 9.93583 0.961426H11.9872C12.2684 0.961426 12.5075 1.05993 12.7045 1.25693C12.9015 1.45393 13 1.69304 13 1.97426V3.35893C13 3.64015 12.9015 3.87926 12.7045 4.07626C12.5075 4.27326 12.2684 4.37176 11.9872 4.37176H11.4615V6.29476H11.9872C12.2684 6.29476 12.5075 6.39326 12.7045 6.59026C12.9015 6.78726 13 7.02637 13 7.30759V8.69226C13 8.97348 12.9015 9.21259 12.7045 9.40959C12.5075 9.60659 12.2684 9.70509 11.9872 9.70509H9.93583C9.65472 9.70509 9.41567 9.60659 9.21867 9.40959C9.02167 9.21259 8.92317 8.97348 8.92317 8.69226ZM9.923 8.70509H12V7.29476H9.923V8.70509ZM9.923 3.37176H12V1.96143H9.923V3.37176ZM3 14.0256V12.6409C3 12.3597 3.0985 12.1206 3.2955 11.9236C3.4925 11.7266 3.73161 11.6281 4.01283 11.6281H4.5385V9.70509H4.01283C3.73161 9.70509 3.4925 9.60659 3.2955 9.40959C3.0985 9.21259 3 8.97348 3 8.69226V7.30759C3 7.02637 3.0985 6.78726 3.2955 6.59026C3.4925 6.39326 3.73161 6.29476 4.01283 6.29476H4.5385V4.37176H4.01283C3.73161 4.37176 3.4925 4.27326 3.2955 4.07626C3.0985 3.87926 3 3.64015 3 3.35893V1.97426C3 1.69304 3.0985 1.45393 3.2955 1.25693C3.4925 1.05993 3.73161 0.961426 4.01283 0.961426H6.06417C6.34528 0.961426 6.58433 1.05993 6.78133 1.25693C6.97833 1.45393 7.07683 1.69304 7.07683 1.97426V3.35893C7.07683 3.64015 6.97833 3.87926 6.78133 4.07626C6.58433 4.27326 6.34528 4.37176 6.06417 4.37176H5.5385V6.29476H6.06417C6.34528 6.29476 6.58433 6.39326 6.78133 6.59026C6.97833 6.78726 7.07683 7.02637 7.07683 7.30759V8.69226C7.07683 8.97348 6.97833 9.21259 6.78133 9.40959C6.58433 9.60659 6.34528 9.70509 6.06417 9.70509H5.5385V11.6281H6.06417C6.34528 11.6281 6.58433 11.7266 6.78133 11.9236C6.97833 12.1206 7.07683 12.3597 7.07683 12.6409V14.0256C7.07683 14.3068 6.97833 14.5459 6.78133 14.7429C6.58433 14.9399 6.34528 15.0384 6.06417 15.0384H4.01283C3.73161 15.0384 3.4925 14.9399 3.2955 14.7429C3.0985 14.5459 3 14.3068 3 14.0256ZM4 14.0384H6.077V12.6281H4V14.0384ZM4 8.70509H6.077V7.29476H4V8.70509ZM4 3.37176H6.077V1.96143H4V3.37176Z" fill="white"/>
</g>
</g>
</svg>
