<svg width="7" height="4" viewBox="0 0 7 4" fill="none" xmlns="http://www.w3.org/2000/svg">
<path id="arrow_drop_up" d="M0.843695 3.49995C0.74207 3.49995 0.660195 3.4657 0.59807 3.3972C0.535945 3.32883 0.504883 3.24902 0.504883 3.15777C0.504883 3.13489 0.539945 3.0557 0.61007 2.9202L2.97332 0.556953C3.02757 0.502578 3.0837 0.462891 3.1417 0.437891C3.1997 0.412891 3.26351 0.400391 3.33313 0.400391C3.40276 0.400391 3.46657 0.412891 3.52457 0.437891C3.58257 0.462891 3.6387 0.502578 3.69295 0.556953L6.05638 2.9202C6.08888 2.95283 6.11451 2.98927 6.13326 3.02952C6.15201 3.06964 6.16138 3.1127 6.16138 3.1587C6.16138 3.25058 6.13032 3.33045 6.06819 3.39833C6.00607 3.46608 5.9242 3.49995 5.82257 3.49995H0.843695Z" fill="white"/>
</svg>
