<svg width="56" height="56" viewBox="0 0 56 56" fill="none" xmlns="http://www.w3.org/2000/svg">
<g id="call_quality">
<mask id="mask0_2886_33326" style="mask-type:alpha" maskUnits="userSpaceOnUse" x="0" y="0" width="56" height="56">
<rect id="Bounding box" width="56" height="56" fill="#D9D9D9"/>
</mask>
<g mask="url(#mask0_2886_33326)">
<path id="call_quality_2" d="M43.0272 50.1663C38.63 50.1663 34.2124 49.1439 29.7744 47.0992C25.3368 45.0544 21.2595 42.17 17.5425 38.446C13.8259 34.7216 10.9452 30.6441 8.90042 26.2135C6.85564 21.7833 5.83325 17.3696 5.83325 12.9724C5.83325 12.2658 6.06659 11.677 6.53325 11.2061C6.99992 10.7351 7.58325 10.4997 8.28325 10.4997H15.8934C16.4826 10.4997 17.0023 10.692 17.4527 11.0766C17.903 11.4608 18.1894 11.9356 18.3119 12.5011L19.6495 19.3663C19.7421 20.0033 19.7226 20.5507 19.5912 21.0084C19.4593 21.4661 19.2229 21.8506 18.8818 22.1617L13.493 27.4076C14.3602 28.9958 15.3511 30.4983 16.4657 31.915C17.5798 33.3313 18.7862 34.6841 20.0847 35.9733C21.3649 37.2539 22.726 38.4431 24.168 39.5409C25.61 40.6388 27.1671 41.6604 28.8393 42.6058L34.0753 37.3243C34.4405 36.9443 34.8827 36.6779 35.4018 36.5251C35.9206 36.3726 36.4598 36.3353 37.0194 36.4131L43.4985 37.7326C44.0877 37.8881 44.5685 38.1888 44.9411 38.6344C45.3136 39.0801 45.4999 39.5856 45.4999 40.1511V47.7163C45.4999 48.4163 45.2644 48.9997 44.7935 49.4663C44.3226 49.933 43.7338 50.1663 43.0272 50.1663ZM11.8369 24.096L16.0013 20.1113C16.076 20.0514 16.1246 19.9691 16.1472 19.8645C16.1697 19.7599 16.166 19.6627 16.1361 19.5728L15.1217 14.3584C15.0917 14.239 15.0394 14.1494 14.9648 14.0895C14.8901 14.0296 14.7929 13.9997 14.6731 13.9997H9.68325C9.59342 13.9997 9.51856 14.0296 9.45867 14.0895C9.39917 14.1494 9.36942 14.2243 9.36942 14.3141C9.48881 15.9085 9.74975 17.5283 10.1523 19.1733C10.5544 20.8186 11.1159 22.4596 11.8369 24.096ZM32.1369 44.2613C33.6835 44.9823 35.2966 45.5335 36.9763 45.915C38.6562 46.2961 40.226 46.5226 41.6855 46.5946C41.7753 46.5946 41.8502 46.5646 41.9101 46.5048C41.97 46.4449 41.9999 46.37 41.9999 46.2802V41.3714C41.9999 41.2516 41.97 41.1544 41.9101 41.0798C41.8502 41.0051 41.7606 40.9528 41.6412 40.9228L36.7412 39.9265C36.6513 39.8966 36.5728 39.8929 36.5055 39.9154C36.4382 39.938 36.3671 39.9866 36.292 40.0613L32.1369 44.2613ZM39.0868 27.9997C36.0211 27.9997 33.407 26.9193 31.2444 24.7587C29.0814 22.598 27.9999 19.9851 27.9999 16.9198C27.9999 13.8542 29.0803 11.2401 31.2409 9.07751C33.4016 6.91451 36.0145 5.83301 39.0798 5.83301C42.1454 5.83301 44.7595 6.91334 46.9221 9.07401C49.0851 11.2347 50.1666 13.8476 50.1666 16.9128C50.1666 19.9785 49.0863 22.5926 46.9256 24.7552C44.7649 26.9182 42.152 27.9997 39.0868 27.9997ZM39.0833 23.7816C39.3586 23.7816 39.5993 23.6785 39.8054 23.4724C40.0119 23.2659 40.1152 23.025 40.1152 22.7497V15.9743C40.1152 15.6989 40.0119 15.458 39.8054 15.2515C39.5993 15.0454 39.3586 14.9423 39.0833 14.9423C38.8079 14.9423 38.567 15.0454 38.3605 15.2515C38.1544 15.458 38.0513 15.6989 38.0513 15.9743V22.7497C38.0513 23.025 38.1544 23.2659 38.3605 23.4724C38.567 23.6785 38.8079 23.7816 39.0833 23.7816ZM39.0833 12.4743C39.3944 12.4743 39.6666 12.3576 39.8999 12.1243C40.1333 11.8909 40.2499 11.6187 40.2499 11.3076C40.2499 10.9965 40.1333 10.7243 39.8999 10.4909C39.6666 10.2576 39.3944 10.1409 39.0833 10.1409C38.7721 10.1409 38.4999 10.2576 38.2666 10.4909C38.0333 10.7243 37.9166 10.9965 37.9166 11.3076C37.9166 11.6187 38.0333 11.8909 38.2666 12.1243C38.4999 12.3576 38.7721 12.4743 39.0833 12.4743Z" fill="white" fill-opacity="0.2"/>
</g>
</g>
</svg>
