<svg width="72" height="72" viewBox="0 0 72 72" fill="none" xmlns="http://www.w3.org/2000/svg">
<mask id="mask0_253_102015" style="mask-type:alpha" maskUnits="userSpaceOnUse" x="0" y="0" width="72" height="72">
<rect width="72" height="72" fill="#D9D9D9"/>
</mask>
<g mask="url(#mask0_253_102015)">
<path d="M47.1345 57H13.8465C12.4655 57 11.3125 56.5375 10.3875 55.6125C9.4625 54.6875 9 53.5345 9 52.1535L9 19.8465C9 18.4655 9.4625 17.3125 10.3875 16.3875C11.3125 15.4625 12.4655 15 13.8465 15L58.1535 15C59.5345 15 60.6875 15.4625 61.6125 16.3875C62.5375 17.3125 63 18.4655 63 19.8465V52.1535C63 53.5345 62.5375 54.6875 61.6125 55.6125C60.6875 56.5375 59.5345 57 58.1535 57H55.6845L41.2387 42.5535C40.3037 43.369 39.272 43.9808 38.1435 44.3888C37.0145 44.7963 35.8 45 34.5 45C31.596 45 29.12 43.976 27.072 41.928C25.024 39.88 24 37.404 24 34.5C24 31.596 25.024 29.12 27.072 27.072C29.12 25.024 31.596 24 34.5 24C37.404 24 39.88 25.024 41.928 27.072C43.976 29.12 45 31.596 45 34.5C45 35.581 44.8828 36.5675 44.6483 37.4595C44.4137 38.352 43.9465 39.304 43.2465 40.3155L56.931 54H58.1535C58.6155 54 59.0388 53.8078 59.4233 53.4232C59.8078 53.0387 60 52.6155 60 52.1535V19.8465C60 19.3845 59.8078 18.9613 59.4233 18.5768C59.0388 18.1923 58.6155 18 58.1535 18H13.8465C13.3845 18 12.9613 18.1923 12.5768 18.5768C12.1923 18.9613 12 19.3845 12 19.8465V52.1535C12 52.6155 12.1923 53.0387 12.5768 53.4232C12.9613 53.8078 13.3845 54 13.8465 54H44.1345L47.1345 57ZM34.5 42C36.6 42 38.375 41.275 39.825 39.825C41.275 38.375 42 36.6 42 34.5C42 32.4 41.275 30.625 39.825 29.175C38.375 27.725 36.6 27 34.5 27C32.4 27 30.625 27.725 29.175 29.175C27.725 30.625 27 32.4 27 34.5C27 36.6 27.725 38.375 29.175 39.825C30.625 41.275 32.4 42 34.5 42Z" fill="white" fill-opacity="0.2"/>
</g>
</svg>