<svg width="16" height="16" viewBox="0 0 16 16" fill="none" xmlns="http://www.w3.org/2000/svg">
<g id="205_group">
<mask id="mask0_4385_54813" style="mask-type:alpha" maskUnits="userSpaceOnUse" x="0" y="0" width="16" height="16">
<rect id="Bounding box" width="16" height="16" fill="#D9D9D9"/>
</mask>
<g mask="url(#mask0_4385_54813)">
<path id="mail" d="M2.87216 13C2.53538 13 2.25033 12.8833 2.01699 12.65C1.78366 12.4167 1.66699 12.1316 1.66699 11.7948L1.66699 4.20517C1.66699 3.86839 1.78366 3.58333 2.01699 3.35C2.25033 3.11667 2.53538 3 2.87216 3L13.1285 3C13.4653 3 13.7503 3.11667 13.9837 3.35C14.217 3.58333 14.3337 3.86839 14.3337 4.20517V11.7948C14.3337 12.1316 14.217 12.4167 13.9837 12.65C13.7503 12.8833 13.4653 13 13.1285 13H2.87216ZM13.3337 4.9615L8.32466 8.168C8.27344 8.197 8.22044 8.21983 8.16566 8.2365C8.11099 8.25317 8.05588 8.2615 8.00033 8.2615C7.94477 8.2615 7.88966 8.25317 7.83499 8.2365C7.78021 8.21983 7.72721 8.197 7.67599 8.168L2.66699 4.9615L2.66699 11.7948C2.66699 11.8547 2.68621 11.9039 2.72466 11.9423C2.7631 11.9808 2.81227 12 2.87216 12H13.1285C13.1884 12 13.2375 11.9808 13.276 11.9423C13.3144 11.9039 13.3337 11.8547 13.3337 11.7948V4.9615ZM8.00033 7.33333L13.2312 4L2.76949 4L8.00033 7.33333ZM2.66699 5.11533V4.35317V4.373V4.35183V5.11533Z" fill="white"/>
</g>
</g>
</svg>
