<svg width="20" height="20" viewBox="0 0 20 20" fill="none" xmlns="http://www.w3.org/2000/svg">
<g id="attach_file">
<mask id="mask0_5043_4841" style="mask-type:alpha" maskUnits="userSpaceOnUse" x="0" y="0" width="20" height="20">
<rect id="Bounding box" width="20" height="20" fill="#D9D9D9"/>
</mask>
<g mask="url(#mask0_5043_4841)">
<path id="attach_file_2" d="M14.7275 13.0369C14.7275 14.3902 14.2566 15.5418 13.3148 16.4917C12.3731 17.4417 11.2268 17.9167 9.87584 17.9167C8.52487 17.9167 7.37716 17.4417 6.43272 16.4917C5.48827 15.5418 5.01605 14.3902 5.01605 13.0369V5.54479C5.01605 4.58326 5.34994 3.76597 6.01772 3.09291C6.68536 2.41986 7.49994 2.08333 8.46147 2.08333C9.423 2.08333 10.2376 2.41986 10.9054 3.09291C11.5732 3.76597 11.9071 4.58326 11.9071 5.54479V12.6362C11.9071 13.2003 11.7106 13.6818 11.3177 14.0808C10.9247 14.4799 10.4458 14.6794 9.88105 14.6794C9.31619 14.6794 8.83425 14.4812 8.43522 14.085C8.03619 13.6887 7.83668 13.2058 7.83668 12.6362V5.94562C7.83668 5.76854 7.89654 5.62006 8.01626 5.5002C8.13612 5.38048 8.28466 5.32062 8.46189 5.32062C8.63897 5.32062 8.78737 5.38048 8.90709 5.5002C9.02668 5.62006 9.08647 5.76854 9.08647 5.94562V12.6362C9.08647 12.8596 9.16154 13.0476 9.31168 13.2004C9.46182 13.3532 9.64855 13.4296 9.87189 13.4296C10.0951 13.4296 10.2817 13.3532 10.4319 13.2004C10.582 13.0476 10.6571 12.8596 10.6571 12.6362V5.53687C10.6485 4.92145 10.4347 4.40034 10.0158 3.97354C9.59696 3.54673 9.07883 3.33333 8.46147 3.33333C7.84675 3.33333 7.32716 3.54805 6.90272 3.97749C6.47827 4.40708 6.26605 4.92951 6.26605 5.54479V13.0369C6.25744 14.0444 6.60571 14.9012 7.31084 15.6073C8.01598 16.3135 8.87196 16.6667 9.87876 16.6667C10.8713 16.6667 11.7149 16.3135 12.4098 15.6073C13.1045 14.9012 13.4604 14.0444 13.4775 13.0369V5.94562C13.4775 5.76854 13.5374 5.62006 13.6573 5.5002C13.7772 5.38048 13.9257 5.32062 14.1029 5.32062C14.28 5.32062 14.4284 5.38048 14.5481 5.5002C14.6677 5.62006 14.7275 5.76854 14.7275 5.94562V13.0369Z" fill="#888888"/>
</g>
</g>
</svg>
