<svg width="16" height="16" viewBox="0 0 16 16" fill="none" xmlns="http://www.w3.org/2000/svg">
<g id="19_group">
<mask id="mask0_4385_53885" style="mask-type:alpha" maskUnits="userSpaceOnUse" x="0" y="0" width="16" height="16">
<rect id="Bounding box" width="16" height="16" transform="matrix(-1 0 0 1 16 0)" fill="#D9D9D9"/>
</mask>
<g mask="url(#mask0_4385_53885)">
<path id="arrow_forward_ios" d="M6.11266 8.00065L11.1345 2.97882C11.2669 2.84637 11.3314 2.68871 11.328 2.50582C11.3245 2.32293 11.2566 2.16521 11.1242 2.03265C10.9917 1.90021 10.834 1.83398 10.6512 1.83398C10.4683 1.83398 10.3105 1.90021 10.178 2.03265L5.07416 7.14682C4.95372 7.26737 4.86444 7.40243 4.80633 7.55198C4.74811 7.70154 4.719 7.8511 4.719 8.00065C4.719 8.15021 4.74811 8.29976 4.80633 8.44932C4.86444 8.59887 4.95372 8.73393 5.07416 8.85448L10.1883 13.9687C10.3208 14.1011 10.4767 14.1656 10.6562 14.1622C10.8357 14.1587 10.9917 14.0908 11.1242 13.9583C11.2566 13.8259 11.3228 13.6682 11.3228 13.4853C11.3228 13.3024 11.2566 13.1447 11.1242 13.0122L6.11266 8.00065Z" fill="#888888"/>
</g>
</g>
</svg>
