<svg width="96" height="96" viewBox="0 0 96 96" fill="none" xmlns="http://www.w3.org/2000/svg">
<g id="monitoring">
<mask id="mask0_22000_129867" style="mask-type:alpha" maskUnits="userSpaceOnUse" x="0" y="0" width="96" height="96">
<rect id="Bounding box" width="96" height="96" fill="#D9D9D9"/>
</mask>
<g mask="url(#mask0_22000_129867)">
<path id="monitoring_2" d="M15.3303 79.6841C14.7629 79.6841 14.2883 79.4924 13.9063 79.1091C13.5243 78.7257 13.3333 78.2507 13.3333 77.6841V74.5301C13.3333 73.9634 13.5253 73.4884 13.9093 73.1051C14.2933 72.7217 14.7689 72.5301 15.3363 72.5301C15.9036 72.5301 16.3783 72.7217 16.7603 73.1051C17.1423 73.4884 17.3333 73.9634 17.3333 74.5301V77.6841C17.3333 78.2507 17.1413 78.7257 16.7573 79.1091C16.3733 79.4924 15.8976 79.6841 15.3303 79.6841ZM31.3303 79.6841C30.7629 79.6841 30.2883 79.4924 29.9063 79.1091C29.5243 78.7257 29.3333 78.2507 29.3333 77.6841V56.5301C29.3333 55.9634 29.5253 55.4884 29.9093 55.1051C30.2933 54.7217 30.7689 54.5301 31.3363 54.5301C31.9036 54.5301 32.3783 54.7217 32.7603 55.1051C33.1423 55.4884 33.3333 55.9634 33.3333 56.5301V77.6841C33.3333 78.2507 33.1413 78.7257 32.7573 79.1091C32.3733 79.4924 31.8976 79.6841 31.3303 79.6841ZM47.3303 79.6841C46.7629 79.6841 46.2883 79.4924 45.9063 79.1091C45.5243 78.7257 45.3333 78.2507 45.3333 77.6841V64.5301C45.3333 63.9634 45.5253 63.4884 45.9093 63.1051C46.2933 62.7217 46.7689 62.5301 47.3363 62.5301C47.9036 62.5301 48.3783 62.7217 48.7603 63.1051C49.1423 63.4884 49.3333 63.9634 49.3333 64.5301V77.6841C49.3333 78.2507 49.1413 78.7257 48.7573 79.1091C48.3733 79.4924 47.8976 79.6841 47.3303 79.6841ZM63.3302 79.6841C62.7629 79.6841 62.2882 79.4924 61.9062 79.1091C61.5243 78.7257 61.3333 78.2507 61.3333 77.6841V58.5301C61.3333 57.9634 61.5253 57.4884 61.9093 57.1051C62.2933 56.7217 62.7689 56.5301 63.3363 56.5301C63.9036 56.5301 64.3783 56.7217 64.7603 57.1051C65.1423 57.4884 65.3333 57.9634 65.3333 58.5301V77.6841C65.3333 78.2507 65.1413 78.7257 64.7573 79.1091C64.3733 79.4924 63.8976 79.6841 63.3302 79.6841ZM79.3303 79.6841C78.7629 79.6841 78.2883 79.4924 77.9062 79.1091C77.5242 78.7257 77.3333 78.2507 77.3333 77.6841V42.5301C77.3333 41.9634 77.5253 41.4884 77.9093 41.1051C78.2933 40.7217 78.7689 40.5301 79.3363 40.5301C79.9036 40.5301 80.3783 40.7217 80.7603 41.1051C81.1423 41.4884 81.3333 41.9634 81.3333 42.5301V77.6841C81.3333 78.2507 81.1413 78.7257 80.7573 79.1091C80.3733 79.4924 79.8976 79.6841 79.3303 79.6841ZM55.3333 43.4301C54.5233 43.4301 53.7256 43.2704 52.9403 42.9511C52.1549 42.6311 51.4373 42.1781 50.7873 41.5921L41.1023 31.9071C40.6409 31.4457 40.0513 31.2151 39.3333 31.2151C38.6153 31.2151 38.0256 31.4457 37.5643 31.9071L16.7483 52.7221C16.3589 53.1121 15.8833 53.3161 15.3213 53.3341C14.7599 53.3521 14.2846 53.1404 13.8953 52.6991C13.5206 52.3097 13.3413 51.8437 13.3573 51.3011C13.3739 50.7591 13.5609 50.3074 13.9183 49.9461L34.7873 29.0761C35.4373 28.4367 36.1549 27.9704 36.9403 27.6771C37.7256 27.3844 38.5233 27.2381 39.3333 27.2381C40.1433 27.2381 40.9546 27.3844 41.7673 27.6771C42.5799 27.9704 43.2839 28.4367 43.8793 29.0761L53.5643 38.7611C54.0256 39.2224 54.6153 39.4531 55.3333 39.4531C56.0513 39.4531 56.6409 39.2224 57.1023 38.7611L77.9183 17.9461C78.3076 17.5561 78.7833 17.3521 79.3453 17.3341C79.9066 17.3161 80.3819 17.5277 80.7713 17.9691C81.1459 18.3584 81.3253 18.8244 81.3093 19.3671C81.2926 19.9091 81.1056 20.3607 80.7483 20.7221L59.8793 41.5921C59.2839 42.1781 58.5799 42.6311 57.7673 42.9511C56.9546 43.2704 56.1433 43.4301 55.3333 43.4301Z" fill="white" fill-opacity="0.2"/>
</g>
</g>
</svg>
