<svg width="14" height="14" viewBox="0 0 14 14" fill="none" xmlns="http://www.w3.org/2000/svg">
<g id="close">
<mask id="mask0_4385_56712" style="mask-type:alpha" maskUnits="userSpaceOnUse" x="0" y="0" width="14" height="14">
<rect id="Bounding box" width="14" height="14" fill="#D9D9D9"/>
</mask>
<g mask="url(#mask0_4385_56712)">
<path id="close_2" d="M6.99964 7.61433L4.04039 10.5737C3.9596 10.6544 3.85805 10.6957 3.73574 10.6977C3.61354 10.6995 3.51014 10.6582 3.42556 10.5737C3.34107 10.4891 3.29883 10.3867 3.29883 10.2663C3.29883 10.1459 3.34107 10.0435 3.42556 9.95889L6.38495 6.99964L3.42556 4.04039C3.34486 3.9596 3.30354 3.85805 3.3016 3.73575C3.29975 3.61354 3.34107 3.51014 3.42556 3.42556C3.51014 3.34107 3.61261 3.29883 3.73297 3.29883C3.85334 3.29883 3.95581 3.34107 4.04039 3.42556L6.99964 6.38495L9.95889 3.42556C10.0397 3.34486 10.1412 3.30354 10.2635 3.3016C10.3857 3.29975 10.4891 3.34107 10.5737 3.42556C10.6582 3.51014 10.7005 3.61261 10.7005 3.73297C10.7005 3.85334 10.6582 3.95581 10.5737 4.04039L7.61433 6.99964L10.5737 9.95889C10.6544 10.0397 10.6957 10.1412 10.6977 10.2635C10.6995 10.3857 10.6582 10.4891 10.5737 10.5737C10.4891 10.6582 10.3867 10.7005 10.2663 10.7005C10.1459 10.7005 10.0435 10.6582 9.95889 10.5737L6.99964 7.61433Z" fill="#888888"/>
</g>
</g>
</svg>
