<svg width="14" height="14" viewBox="0 0 14 14" fill="none" xmlns="http://www.w3.org/2000/svg">
<g id="download">
<mask id="mask0_5043_2797" style="mask-type:alpha" maskUnits="userSpaceOnUse" x="0" y="0" width="14" height="14">
<rect id="Bounding box" width="14" height="14" fill="#D9D9D9"/>
</mask>
<g mask="url(#mask0_5043_2797)">
<path id="download_2" d="M7 8.99004C6.92971 8.99004 6.86428 8.97881 6.80371 8.95635C6.74314 8.93399 6.68553 8.89549 6.6309 8.84085L4.81702 7.02698C4.7303 6.94016 4.68747 6.83861 4.68854 6.72233C4.68971 6.60606 4.73253 6.50266 4.81702 6.41215C4.90753 6.32173 5.01147 6.27501 5.12881 6.272C5.24626 6.26899 5.35024 6.31274 5.44075 6.40325L6.5625 7.525V3.0625C6.5625 2.93835 6.6044 2.83442 6.68821 2.75071C6.77192 2.6669 6.87585 2.625 7 2.625C7.12415 2.625 7.22808 2.6669 7.31179 2.75071C7.3956 2.83442 7.4375 2.93835 7.4375 3.0625V7.525L8.55925 6.40325C8.64607 6.31653 8.74908 6.2737 8.86827 6.27477C8.98756 6.27594 9.09247 6.32173 9.18298 6.41215C9.26747 6.50266 9.31121 6.60513 9.31423 6.71956C9.31724 6.83399 9.27349 6.93647 9.18298 7.02698L7.3691 8.84085C7.31447 8.89549 7.25686 8.93399 7.19629 8.95635C7.13572 8.97881 7.07029 8.99004 7 8.99004ZM3.67952 11.375C3.38484 11.375 3.13542 11.2729 2.93125 11.0688C2.72708 10.8646 2.625 10.6152 2.625 10.3205V9.17627C2.625 9.05212 2.6669 8.94819 2.75071 8.86448C2.83442 8.78067 2.93835 8.73877 3.0625 8.73877C3.18665 8.73877 3.29058 8.78067 3.37429 8.86448C3.4581 8.94819 3.5 9.05212 3.5 9.17627V10.3205C3.5 10.3654 3.51872 10.4065 3.55615 10.4439C3.59348 10.4813 3.6346 10.5 3.67952 10.5H10.3205C10.3654 10.5 10.4065 10.4813 10.4439 10.4439C10.4813 10.4065 10.5 10.3654 10.5 10.3205V9.17627C10.5 9.05212 10.5419 8.94819 10.6257 8.86448C10.7094 8.78067 10.8133 8.73877 10.9375 8.73877C11.0617 8.73877 11.1656 8.78067 11.2493 8.86448C11.3331 8.94819 11.375 9.05212 11.375 9.17627V10.3205C11.375 10.6152 11.2729 10.8646 11.0688 11.0688C10.8646 11.2729 10.6152 11.375 10.3205 11.375H3.67952Z" fill="#888888"/>
</g>
</g>
</svg>
