<svg width="12" height="12" viewBox="0 0 12 12" fill="none" xmlns="http://www.w3.org/2000/svg">
<g id="205_group">
<mask id="mask0_4385_56357" style="mask-type:alpha" maskUnits="userSpaceOnUse" x="0" y="0" width="12" height="12">
<rect id="Bounding box" width="12" height="12" fill="#D9D9D9"/>
</mask>
<g mask="url(#mask0_4385_56357)">
<path id="drag_indicator" d="M4.50001 9.80666C4.27792 9.80666 4.0878 9.72757 3.92963 9.56941C3.77147 9.41124 3.69238 9.22111 3.69238 8.99903C3.69238 8.77695 3.77147 8.58682 3.92963 8.42866C4.0878 8.27049 4.27792 8.19141 4.50001 8.19141C4.72209 8.19141 4.91222 8.27049 5.07038 8.42866C5.22855 8.58682 5.30763 8.77695 5.30763 8.99903C5.30763 9.22111 5.22855 9.41124 5.07038 9.56941C4.91222 9.72757 4.72209 9.80666 4.50001 9.80666ZM7.50001 9.80666C7.27792 9.80666 7.0878 9.72757 6.92963 9.56941C6.77147 9.41124 6.69238 9.22111 6.69238 8.99903C6.69238 8.77695 6.77147 8.58682 6.92963 8.42866C7.0878 8.27049 7.27792 8.19141 7.50001 8.19141C7.72209 8.19141 7.91222 8.27049 8.07038 8.42866C8.22855 8.58682 8.30763 8.77695 8.30763 8.99903C8.30763 9.22111 8.22855 9.41124 8.07038 9.56941C7.91222 9.72757 7.72209 9.80666 7.50001 9.80666ZM4.50001 6.80666C4.27792 6.80666 4.0878 6.72757 3.92963 6.56941C3.77147 6.41124 3.69238 6.22111 3.69238 5.99903C3.69238 5.77695 3.77147 5.58682 3.92963 5.42866C4.0878 5.27049 4.27792 5.19141 4.50001 5.19141C4.72209 5.19141 4.91222 5.27049 5.07038 5.42866C5.22855 5.58682 5.30763 5.77695 5.30763 5.99903C5.30763 6.22111 5.22855 6.41124 5.07038 6.56941C4.91222 6.72757 4.72209 6.80666 4.50001 6.80666ZM7.50001 6.80666C7.27792 6.80666 7.0878 6.72757 6.92963 6.56941C6.77147 6.41124 6.69238 6.22111 6.69238 5.99903C6.69238 5.77695 6.77147 5.58682 6.92963 5.42866C7.0878 5.27049 7.27792 5.19141 7.50001 5.19141C7.72209 5.19141 7.91222 5.27049 8.07038 5.42866C8.22855 5.58682 8.30763 5.77695 8.30763 5.99903C8.30763 6.22111 8.22855 6.41124 8.07038 6.56941C7.91222 6.72757 7.72209 6.80666 7.50001 6.80666ZM4.50001 3.80666C4.27792 3.80666 4.0878 3.72757 3.92963 3.56941C3.77147 3.41124 3.69238 3.22111 3.69238 2.99903C3.69238 2.77695 3.77147 2.58682 3.92963 2.42866C4.0878 2.27049 4.27792 2.19141 4.50001 2.19141C4.72209 2.19141 4.91222 2.27049 5.07038 2.42866C5.22855 2.58682 5.30763 2.77695 5.30763 2.99903C5.30763 3.22111 5.22855 3.41124 5.07038 3.56941C4.91222 3.72757 4.72209 3.80666 4.50001 3.80666ZM7.50001 3.80666C7.27792 3.80666 7.0878 3.72757 6.92963 3.56941C6.77147 3.41124 6.69238 3.22111 6.69238 2.99903C6.69238 2.77695 6.77147 2.58682 6.92963 2.42866C7.0878 2.27049 7.27792 2.19141 7.50001 2.19141C7.72209 2.19141 7.91222 2.27049 8.07038 2.42866C8.22855 2.58682 8.30763 2.77695 8.30763 2.99903C8.30763 3.22111 8.22855 3.41124 8.07038 3.56941C7.91222 3.72757 7.72209 3.80666 7.50001 3.80666Z" fill="#888888"/>
</g>
</g>
</svg>
