<svg width="72" height="72" viewBox="0 0 72 72" fill="none" xmlns="http://www.w3.org/2000/svg">
<g id="call_log">
<mask id="mask0_2886_33330" style="mask-type:alpha" maskUnits="userSpaceOnUse" x="0" y="0" width="72" height="72">
<rect id="Bounding box" width="72" height="72" fill="#D9D9D9"/>
</mask>
<g mask="url(#mask0_2886_33330)">
<path id="call_log_2" d="M55.3207 64.5C49.6672 64.5 43.9875 63.1855 38.2815 60.5565C32.576 57.9275 27.3338 54.219 22.5548 49.431C17.7763 44.6425 14.0725 39.4 11.4435 33.7035C8.8145 28.0075 7.5 22.3328 7.5 16.6793C7.5 15.7708 7.8 15.0137 8.4 14.4082C9 13.8027 9.75 13.5 10.65 13.5H20.4345C21.192 13.5 21.8603 13.7473 22.4393 14.2418C23.0183 14.7358 23.3865 15.3462 23.544 16.0732L25.2638 24.9C25.3828 25.719 25.3577 26.4228 25.1888 27.0113C25.0193 27.5998 24.7153 28.094 24.2768 28.494L17.3482 35.2388C18.4632 37.2808 19.7372 39.2125 21.1702 41.034C22.6027 42.855 24.1537 44.5943 25.8232 46.2518C27.4692 47.8983 29.2192 49.4272 31.0732 50.8387C32.9272 52.2503 34.9293 53.5638 37.0793 54.7793L43.8113 47.9887C44.2808 47.5002 44.8493 47.1578 45.5168 46.9613C46.1838 46.7653 46.877 46.7173 47.5965 46.8172L55.9268 48.5137C56.6842 48.7137 57.3025 49.1003 57.7815 49.6732C58.2605 50.2463 58.5 50.8963 58.5 51.6233V61.35C58.5 62.25 58.1973 63 57.5918 63.6C56.9863 64.2 56.2292 64.5 55.3207 64.5ZM15.219 30.981L20.5732 25.8578C20.6692 25.7808 20.7317 25.675 20.7607 25.5405C20.7898 25.406 20.785 25.281 20.7465 25.1655L19.4423 18.4613C19.4038 18.3078 19.3365 18.1925 19.2405 18.1155C19.1445 18.0385 19.0195 18 18.8655 18H12.45C12.3345 18 12.2382 18.0385 12.1612 18.1155C12.0847 18.1925 12.0465 18.2888 12.0465 18.4043C12.2 20.4543 12.5355 22.5368 13.053 24.6518C13.57 26.7673 14.292 28.877 15.219 30.981ZM41.319 56.9078C43.3075 57.8348 45.3815 58.5435 47.541 59.034C49.701 59.524 51.7192 59.8153 53.5957 59.9078C53.7113 59.9078 53.8075 59.8693 53.8845 59.7923C53.9615 59.7152 54 59.619 54 59.5035V53.1922C54 53.0382 53.9615 52.9132 53.8845 52.8172C53.8075 52.7212 53.6922 52.654 53.5387 52.6155L47.2387 51.3345C47.1232 51.296 47.0223 51.2913 46.9358 51.3203C46.8493 51.3493 46.7578 51.4118 46.6613 51.5078L41.319 56.9078ZM38.25 12C37.6125 12 37.078 11.7842 36.6465 11.3527C36.2155 10.9212 36 10.3867 36 9.74925C36 9.11125 36.2155 8.577 36.6465 8.1465C37.078 7.7155 37.6125 7.5 38.25 7.5H62.25C62.8875 7.5 63.4217 7.71575 63.8528 8.14725C64.2843 8.57875 64.5 9.11325 64.5 9.75075C64.5 10.3888 64.2843 10.923 63.8528 11.3535C63.4217 11.7845 62.8875 12 62.25 12H38.25ZM38.25 23.0768C37.6125 23.0768 37.078 22.861 36.6465 22.4295C36.2155 21.998 36 21.4635 36 20.826C36 20.188 36.2155 19.6537 36.6465 19.2232C37.078 18.7922 37.6125 18.5767 38.25 18.5767H62.25C62.8875 18.5767 63.4217 18.7925 63.8528 19.224C64.2843 19.6555 64.5 20.1903 64.5 20.8283C64.5 21.4658 64.2843 22 63.8528 22.431C63.4217 22.8615 62.8875 23.0768 62.25 23.0768H38.25ZM38.25 34.1535C37.6125 34.1535 37.078 33.9377 36.6465 33.5062C36.2155 33.0752 36 32.5407 36 31.9027C36 31.2647 36.2155 30.7305 36.6465 30.3C37.078 29.869 37.6125 29.6535 38.25 29.6535H62.25C62.8875 29.6535 63.4217 29.8693 63.8528 30.3008C64.2843 30.7323 64.5 31.267 64.5 31.905C64.5 32.5425 64.2843 33.0768 63.8528 33.5078C63.4217 33.9383 62.8875 34.1535 62.25 34.1535H38.25Z" fill="#888888"/>
</g>
</g>
</svg>
