<svg width="72" height="72" viewBox="0 0 72 72" fill="none" xmlns="http://www.w3.org/2000/svg">
<g id="note_stack">
<mask id="mask0_295_17323" style="mask-type:alpha" maskUnits="userSpaceOnUse" x="0" y="0" width="72" height="72">
<rect id="Bounding box" width="72" height="72" fill="#D9D9D9"/>
</mask>
<g mask="url(#mask0_295_17323)">
<path id="note_stack_2" d="M24 58.1535V28.8285C24 27.4865 24.475 26.3462 25.425 25.4077C26.375 24.4692 27.5212 24 28.8637 24H58.1535C59.496 24 60.6395 24.472 61.584 25.416C62.528 26.3605 63 27.504 63 28.8465V49.731L49.731 63H28.8465C27.504 63 26.3605 62.528 25.416 61.584C24.472 60.6395 24 59.496 24 58.1535ZM9.07497 19.7887C8.81347 18.4462 9.07122 17.2375 9.84822 16.1625C10.6252 15.0875 11.6847 14.4192 13.0267 14.1577L41.8845 9.07497C43.227 8.81347 44.4357 9.07122 45.5107 9.84822C46.5857 10.6252 47.254 11.6847 47.5155 13.0267L48.15 16.8465H45.1155L44.475 13.269C44.398 12.846 44.1672 12.5095 43.7827 12.2595C43.3982 12.0095 42.9752 11.923 42.5137 12L13.5577 17.1405C13.0192 17.2175 12.6155 17.4675 12.3465 17.8905C12.077 18.3135 11.9807 18.7942 12.0577 19.3327L16.8465 46.3785V52.1887C16.1615 51.8537 15.5797 51.3787 15.1012 50.7637C14.6222 50.1482 14.3077 49.4425 14.1577 48.6465L9.07497 19.7887ZM27 28.8465V58.1535C27 58.692 27.173 59.1345 27.519 59.481C27.8655 59.827 28.308 60 28.8465 60H48V48H60V28.8465C60 28.308 59.827 27.8655 59.481 27.519C59.1345 27.173 58.692 27 58.1535 27H28.8465C28.308 27 27.8655 27.173 27.519 27.519C27.173 27.8655 27 28.308 27 28.8465Z" fill="white" fill-opacity="0.2"/>
</g>
</g>
</svg>
