<svg width="18" height="18" viewBox="0 0 18 18" fill="none" xmlns="http://www.w3.org/2000/svg">
<g id="error">
<mask id="mask0_2708_38104" style="mask-type:alpha" maskUnits="userSpaceOnUse" x="0" y="0" width="18" height="18">
<rect id="Bounding box" width="18" height="18" transform="matrix(1 0 0 -1 0 18)" fill="#D9D9D9"/>
</mask>
<g mask="url(#mask0_2708_38104)">
<path id="error_2" d="M8.99998 5.45244C9.17162 5.45244 9.31549 5.51049 9.43159 5.62659C9.54769 5.74271 9.60574 5.88657 9.60574 6.0582C9.60574 6.22984 9.54769 6.37371 9.43159 6.48981C9.31549 6.60591 9.17162 6.66396 8.99998 6.66396C8.82834 6.66396 8.68448 6.60591 8.56838 6.48981C8.45228 6.37371 8.39423 6.22984 8.39423 6.0582C8.39423 5.88657 8.45228 5.74271 8.56838 5.62659C8.68448 5.51049 8.82834 5.45244 8.99998 5.45244ZM9.00023 8.19281C9.15968 8.19281 9.29324 8.24672 9.40093 8.35453C9.50862 8.46233 9.56246 8.59592 9.56246 8.75529V12.1303C9.56246 12.2897 9.50854 12.4233 9.40069 12.5311C9.29283 12.6389 9.15918 12.6928 8.99974 12.6928C8.84029 12.6928 8.70672 12.6389 8.59903 12.5311C8.49134 12.4233 8.4375 12.2897 8.4375 12.1303V8.75529C8.4375 8.59592 8.49143 8.46233 8.59928 8.35453C8.70714 8.24672 8.84079 8.19281 9.00023 8.19281ZM9.00124 1.87552C8.01579 1.87552 7.08951 2.06252 6.22241 2.43653C5.3553 2.81052 4.60104 3.31809 3.95963 3.95921C3.3182 4.60035 2.81041 5.35428 2.43624 6.22101C2.06208 7.08772 1.875 8.0138 1.875 8.99925C1.875 9.9847 2.062 10.911 2.436 11.7781C2.81 12.6452 3.31756 13.3994 3.95869 14.0409C4.59983 14.6823 5.35376 15.1901 6.22048 15.5642C7.08719 15.9384 8.01328 16.1255 8.99873 16.1255C9.98418 16.1255 10.9105 15.9385 11.7776 15.5645C12.6447 15.1905 13.3989 14.6829 14.0403 14.0418C14.6818 13.4007 15.1896 12.6467 15.5637 11.78C15.9379 10.9133 16.125 9.98721 16.125 9.00176C16.125 8.01631 15.938 7.09004 15.564 6.22294C15.19 5.35583 14.6824 4.60156 14.0413 3.96015C13.4001 3.31872 12.6462 2.81093 11.7795 2.43677C10.9128 2.06261 9.98669 1.87552 9.00124 1.87552ZM8.99998 3.00051C10.675 3.00051 12.0937 3.58175 13.2562 4.74426C14.4187 5.90676 15 7.32551 15 9.00051C15 10.6755 14.4187 12.0943 13.2562 13.2568C12.0937 14.4193 10.675 15.0005 8.99998 15.0005C7.32498 15.0005 5.90623 14.4193 4.74373 13.2568C3.58123 12.0943 2.99998 10.6755 2.99998 9.00051C2.99998 7.32551 3.58123 5.90676 4.74373 4.74426C5.90623 3.58175 7.32498 3.00051 8.99998 3.00051Z" fill="white"/>
</g>
</g>
</svg>
