<svg width="16" height="16" viewBox="0 0 16 16" fill="none" xmlns="http://www.w3.org/2000/svg">
<g id="7423_group">
<mask id="mask0_206_37855" style="mask-type:alpha" maskUnits="userSpaceOnUse" x="0" y="0" width="16" height="16">
<rect id="Bounding box" width="16" height="16" fill="#D9D9D9"/>
</mask>
<g mask="url(#mask0_206_37855)">
<path id="chevron_backward" d="M6.96926 8.00016L9.68476 10.7155C9.77699 10.8078 9.82421 10.9239 9.82643 11.0637C9.82854 11.2033 9.78132 11.3215 9.68476 11.4182C9.5881 11.5147 9.47099 11.563 9.33343 11.563C9.19587 11.563 9.07876 11.5147 8.9821 11.4182L5.98593 8.422C5.9236 8.35955 5.8796 8.29372 5.85393 8.2245C5.82826 8.15528 5.81543 8.0805 5.81543 8.00016C5.81543 7.91983 5.82826 7.84505 5.85393 7.77583C5.8796 7.70661 5.9236 7.64078 5.98593 7.57833L8.9821 4.58216C9.07443 4.48994 9.19049 4.44272 9.33026 4.4405C9.46993 4.43839 9.5881 4.48561 9.68476 4.58216C9.78132 4.67883 9.8296 4.79594 9.8296 4.9335C9.8296 5.07105 9.78132 5.18816 9.68476 5.28483L6.96926 8.00016Z" fill="white"/>
</g>
</g>
</svg>
