<svg width="96" height="96" viewBox="0 0 96 96" fill="none" xmlns="http://www.w3.org/2000/svg">
<g id="table">
<mask id="mask0_24759_17983" style="mask-type:alpha" maskUnits="userSpaceOnUse" x="0" y="0" width="96" height="96">
<rect id="Bounding box" width="96" height="96" fill="#D9D9D9"/>
</mask>
<g mask="url(#mask0_24759_17983)">
<path id="table_2" d="M22.462 80C20.6207 80 19.0833 79.3833 17.85 78.15C16.6167 76.9167 16 75.3793 16 73.538V22.462C16 20.6207 16.6167 19.0833 17.85 17.85C19.0833 16.6167 20.6207 16 22.462 16H73.538C75.3793 16 76.9167 16.6167 78.15 17.85C79.3833 19.0833 80 20.6207 80 22.462V73.538C80 75.3793 79.3833 76.9167 78.15 78.15C76.9167 79.3833 75.3793 80 73.538 80H22.462ZM46 57.615H20V73.538C20 74.256 20.2307 74.846 20.692 75.308C21.154 75.7693 21.744 76 22.462 76H46V57.615ZM50 57.615V76H73.538C74.256 76 74.846 75.7693 75.308 75.308C75.7693 74.846 76 74.256 76 73.538V57.615H50ZM46 53.615V35.077H20V53.615H46ZM50 53.615H76V35.077H50V53.615ZM20 31.077H76V22.462C76 21.744 75.7693 21.154 75.308 20.692C74.846 20.2307 74.256 20 73.538 20H22.462C21.744 20 21.154 20.2307 20.692 20.692C20.2307 21.154 20 21.744 20 22.462V31.077Z" fill="white" fill-opacity="0.2"/>
</g>
</g>
</svg>
