<svg xmlns="http://www.w3.org/2000/svg" width="16" height="16" viewBox="0 0 16 16" fill="none">
  <mask id="mask0_4385_54150" style="mask-type:alpha" maskUnits="userSpaceOnUse" x="0" y="0" width="16" height="16">
    <rect width="16" height="16" fill="#D9D9D9"/>
  </mask>
  <g mask="url(#mask0_4385_54150)">
    <path d="M4.6665 8.51348L4.6665 13.834C4.6665 13.9757 4.61856 14.0944 4.52267 14.1902C4.42678 14.286 4.308 14.334 4.16634 14.334C4.02456 14.334 3.90584 14.286 3.81017 14.1902C3.71439 14.0944 3.6665 13.9757 3.6665 13.834L3.6665 2.93665C3.6665 2.76587 3.72428 2.62276 3.83984 2.50732C3.95528 2.39176 4.09839 2.33398 4.26917 2.33398L12.7408 2.33398C12.8503 2.33398 12.9488 2.35932 13.0365 2.40998C13.1243 2.46054 13.1939 2.52632 13.2455 2.60732C13.2971 2.68832 13.3291 2.77843 13.3415 2.87765C13.3538 2.97676 13.3372 3.07787 13.2917 3.18098L12.3012 5.42382L13.2917 7.66648C13.3372 7.7696 13.3538 7.87071 13.3415 7.96982C13.3291 8.06904 13.2971 8.15915 13.2455 8.24015C13.1939 8.32115 13.1243 8.38693 13.0365 8.43748C12.9488 8.48815 12.8503 8.51348 12.7408 8.51348H4.6665ZM4.6665 7.51348L12.155 7.51348L11.4332 5.91098C11.3623 5.75932 11.3268 5.59682 11.3268 5.42348C11.3268 5.25015 11.3623 5.08782 11.4332 4.93648L12.155 3.33398L4.6665 3.33398V7.51348Z" fill="white"/>
  </g>
</svg>