<svg width="18" height="18" viewBox="0 0 18 18" fill="none" xmlns="http://www.w3.org/2000/svg">
<g id="error">
<mask id="mask0_4520_16226" style="mask-type:alpha" maskUnits="userSpaceOnUse" x="0" y="0" width="18" height="18">
<rect id="Bounding box" width="18" height="18" fill="#D9D9D9"/>
</mask>
<g mask="url(#mask0_4520_16226)">
<path id="error_2" d="M8.99998 12.5476C9.17162 12.5476 9.31549 12.4895 9.43159 12.3734C9.54769 12.2573 9.60574 12.1134 9.60574 11.9418C9.60574 11.7702 9.54769 11.6263 9.43159 11.5102C9.31549 11.3941 9.17162 11.336 8.99998 11.336C8.82834 11.336 8.68448 11.3941 8.56838 11.5102C8.45228 11.6263 8.39423 11.7702 8.39423 11.9418C8.39423 12.1134 8.45228 12.2573 8.56838 12.3734C8.68448 12.4895 8.82834 12.5476 8.99998 12.5476ZM9.00023 9.80719C9.15968 9.80719 9.29324 9.75328 9.40093 9.64547C9.50862 9.53767 9.56246 9.40408 9.56246 9.24471V5.86967C9.56246 5.71031 9.50854 5.57672 9.40069 5.46891C9.29283 5.36109 9.15918 5.30719 8.99974 5.30719C8.84029 5.30719 8.70672 5.36109 8.59903 5.46891C8.49134 5.57672 8.4375 5.71031 8.4375 5.86967V9.24471C8.4375 9.40408 8.49143 9.53767 8.59928 9.64547C8.70714 9.75328 8.84079 9.80719 9.00023 9.80719ZM9.00124 16.1245C8.01579 16.1245 7.08951 15.9375 6.22241 15.5635C5.3553 15.1895 4.60104 14.6819 3.95963 14.0408C3.3182 13.3997 2.81041 12.6457 2.43624 11.779C2.06208 10.9123 1.875 9.9862 1.875 9.00075C1.875 8.0153 2.062 7.08902 2.436 6.22192C2.81 5.35481 3.31756 4.60055 3.95869 3.95914C4.59983 3.31771 5.35376 2.80992 6.22048 2.43576C7.08719 2.06159 8.01328 1.87451 8.99873 1.87451C9.98418 1.87451 10.9105 2.06151 11.7776 2.43551C12.6447 2.80951 13.3989 3.31707 14.0403 3.9582C14.6818 4.59934 15.1896 5.35327 15.5637 6.21999C15.9379 7.08671 16.125 8.01279 16.125 8.99824C16.125 9.98369 15.938 10.91 15.564 11.7771C15.19 12.6442 14.6824 13.3984 14.0413 14.0399C13.4001 14.6813 12.6462 15.1891 11.7795 15.5632C10.9128 15.9374 9.98669 16.1245 9.00124 16.1245ZM8.99998 14.9995C10.675 14.9995 12.0937 14.4182 13.2562 13.2557C14.4187 12.0932 15 10.6745 15 8.99949C15 7.32449 14.4187 5.90574 13.2562 4.74324C12.0937 3.58074 10.675 2.99949 8.99998 2.99949C7.32498 2.99949 5.90623 3.58074 4.74373 4.74324C3.58123 5.90574 2.99998 7.32449 2.99998 8.99949C2.99998 10.6745 3.58123 12.0932 4.74373 13.2557C5.90623 14.4182 7.32498 14.9995 8.99998 14.9995Z" fill="#AA7C23"/>
</g>
</g>
</svg>
