<svg width="16" height="16" viewBox="0 0 16 16" fill="none" xmlns="http://www.w3.org/2000/svg">
<g id="205_group">
<mask id="mask0_4385_56351" style="mask-type:alpha" maskUnits="userSpaceOnUse" x="0" y="0" width="16" height="16">
<rect id="Bounding box" width="16" height="16" fill="#D9D9D9"/>
</mask>
<g mask="url(#mask0_4385_56351)">
<path id="mail" d="M2.87167 13C2.53489 13 2.24984 12.8833 2.0165 12.65C1.78317 12.4167 1.6665 12.1316 1.6665 11.7948V4.20517C1.6665 3.86839 1.78317 3.58333 2.0165 3.35C2.24984 3.11667 2.53489 3 2.87167 3H13.128C13.4648 3 13.7498 3.11667 13.9832 3.35C14.2165 3.58333 14.3332 3.86839 14.3332 4.20517V11.7948C14.3332 12.1316 14.2165 12.4167 13.9832 12.65C13.7498 12.8833 13.4648 13 13.128 13H2.87167ZM13.3332 4.9615L8.32417 8.168C8.27295 8.197 8.21995 8.21983 8.16517 8.2365C8.1105 8.25317 8.05539 8.2615 7.99984 8.2615C7.94428 8.2615 7.88917 8.25317 7.8345 8.2365C7.77973 8.21983 7.72673 8.197 7.6755 8.168L2.6665 4.9615V11.7948C2.6665 11.8547 2.68573 11.9039 2.72417 11.9423C2.76262 11.9808 2.81178 12 2.87167 12H13.128C13.1879 12 13.2371 11.9808 13.2755 11.9423C13.3139 11.9039 13.3332 11.8547 13.3332 11.7948V4.9615ZM7.99984 7.33333L13.2307 4H2.769L7.99984 7.33333ZM2.6665 5.11533V4.35317V4.373V4.35183V5.11533Z" fill="#888888"/>
</g>
</g>
</svg>
