<svg width="16" height="16" viewBox="0 0 16 16" fill="none" xmlns="http://www.w3.org/2000/svg">
<g id="205_group">
<mask id="mask0_4385_74788" style="mask-type:alpha" maskUnits="userSpaceOnUse" x="0" y="0" width="16" height="16">
<rect id="Bounding box" width="16" height="16" fill="#D9D9D9"/>
</mask>
<g mask="url(#mask0_4385_74788)">
<path id="published_with_changes" d="M4.83317 3.72854C4.13662 4.24309 3.60134 4.87048 3.22734 5.61071C2.85345 6.35082 2.6665 7.14737 2.6665 8.00037C2.6665 9.25248 3.04473 10.3546 3.80117 11.3067C4.5575 12.2589 5.53656 12.8825 6.73834 13.1774C6.86656 13.2133 6.96995 13.288 7.0485 13.4017C7.12717 13.5154 7.1665 13.6397 7.1665 13.7747C7.1665 13.9097 7.11823 14.0223 7.02167 14.1125C6.925 14.2027 6.81817 14.2332 6.70117 14.2042C5.23528 13.8982 4.02973 13.1721 3.0845 12.026C2.13917 10.8798 1.6665 9.53793 1.6665 8.00037C1.6665 7.01493 1.87145 6.10187 2.28134 5.26121C2.69112 4.42065 3.27806 3.69271 4.04217 3.07737H2.74984C2.60795 3.07737 2.48917 3.02948 2.3935 2.93371C2.29773 2.83804 2.24984 2.71926 2.24984 2.57737C2.24984 2.43548 2.29773 2.31665 2.3935 2.22087C2.48917 2.12521 2.60795 2.07737 2.74984 2.07737H5.23067C5.40245 2.07737 5.54578 2.13482 5.66067 2.24971C5.77567 2.36471 5.83317 2.50809 5.83317 2.67987V5.16071C5.83317 5.30259 5.78528 5.42137 5.6895 5.51704C5.59384 5.61282 5.47506 5.66071 5.33317 5.66071C5.19128 5.66071 5.0725 5.61282 4.97684 5.51704C4.88106 5.42137 4.83317 5.30259 4.83317 5.16071V3.72854ZM7.04984 9.42087L10.4818 5.98887C10.5811 5.88976 10.6971 5.84082 10.83 5.84204C10.9629 5.84337 11.0811 5.89571 11.1845 5.99904C11.2811 6.10248 11.3311 6.21959 11.3345 6.35037C11.3378 6.48115 11.2878 6.59826 11.1845 6.70171L7.47167 10.4145C7.35112 10.535 7.2105 10.5952 7.04984 10.5952C6.88917 10.5952 6.74856 10.535 6.628 10.4145L4.81517 8.59137C4.72295 8.49904 4.67406 8.38471 4.6685 8.24837C4.66295 8.11215 4.71184 7.99232 4.81517 7.88887C4.91184 7.79232 5.02895 7.74404 5.1665 7.74404C5.30406 7.74404 5.42117 7.79232 5.51784 7.88887L7.04984 9.42087ZM11.9575 12.9299H13.2498C13.3917 12.9299 13.5105 12.9777 13.6062 13.0734C13.7019 13.1692 13.7498 13.288 13.7498 13.4299C13.7498 13.5718 13.7019 13.6905 13.6062 13.7862C13.5105 13.882 13.3917 13.9299 13.2498 13.9299H10.769C10.5972 13.9299 10.4539 13.8724 10.339 13.7574C10.224 13.6425 10.1665 13.4991 10.1665 13.3272V10.8465C10.1665 10.7047 10.2144 10.5858 10.3102 10.49C10.4058 10.3944 10.5246 10.3465 10.6665 10.3465C10.8084 10.3465 10.9272 10.3944 11.0228 10.49C11.1186 10.5858 11.1665 10.7047 11.1665 10.8465V12.2785C11.8588 11.753 12.393 11.1218 12.769 10.385C13.1451 9.64826 13.3332 8.85337 13.3332 8.00037C13.3332 6.74826 12.9549 5.64615 12.1985 4.69404C11.4422 3.74182 10.4631 3.11826 9.26134 2.82337C9.13312 2.78748 9.02973 2.71382 8.95117 2.60237C8.8725 2.49082 8.83317 2.36748 8.83317 2.23237C8.83317 2.09737 8.88145 1.98371 8.978 1.89137C9.07467 1.79915 9.1815 1.76754 9.2985 1.79654C10.7644 2.09821 11.9699 2.82321 12.9152 3.97154C13.8605 5.11987 14.3332 6.46282 14.3332 8.00037C14.3332 8.98582 14.1282 9.89993 13.7183 10.7427C13.3086 11.5854 12.7216 12.3144 11.9575 12.9299Z" fill="#888888"/>
</g>
</g>
</svg>
